<svg xmlns="http://www.w3.org/2000/svg" width="1080" height="1080" viewBox="0 0 1080 1080" preserveAspectRatio="xMidYMid meet"><defs><clipPath id="animationMask_jImexGKbSP"><rect width="1080" height="1080" x="0" y="0"></rect></clipPath></defs><g clip-path="url(#animationMask_jImexGKbSP)"><g opacity="1" style="-webkit-user-select: none;"><g transform="matrix(0.6880000000000001,0,0,0.6880000000000001,621.0362839999998,107.82450800000001)" style="-webkit-user-select: none;"><path d=" M1160.954,224.984 C1160.6309999999999,257.746 1133.811,284.04200000000003 1101.05,283.72 C1068.291,283.397 1041.995,256.575 1042.317,223.816 C1042.6399999999999,191.054 1069.459,164.758 1102.221,165.08100000000002 C1134.9759999999999,165.40300000000002 1161.277,192.222 1160.954,224.984z" style="fill: rgb(238, 238, 238); fill-opacity: 1;"></path><path d=" M1079.1680000000001,207.971 C1079.1680000000001,207.971 1028.865,207.475 1028.865,207.475 C1008.016,207.269 990.939,224.006 990.7330000000001,244.865 C990.527,265.722 1007.269,282.794 1028.119,283.001 C1028.119,283.001 1101.05,283.719 1101.05,283.719 C1101.05,283.719 1079.1680000000001,207.971 1079.1680000000001,207.971z" style="fill: rgb(238, 238, 238); fill-opacity: 1;"></path><path d=" M1104.0449999999998,227.61900000000003 C1104.0449999999998,227.61900000000003 1177.202,228.34200000000004 1177.202,228.34200000000004 C1192.6909999999998,228.49500000000003 1205.134,241.18200000000002 1204.981,256.67800000000005 C1204.8249999999998,272.177 1192.1409999999998,284.61800000000005 1176.648,284.46500000000003 C1176.648,284.46500000000003 1086.6819999999998,283.577 1086.6819999999998,283.577 C1086.6819999999998,283.577 1104.0449999999998,227.61900000000003 1104.0449999999998,227.61900000000003z" style="fill: rgb(238, 238, 238); fill-opacity: 1;"></path><path d=" M574.599,48.904999999999994 C574.599,48.904999999999994 539.7429999999999,48.904999999999994 539.7429999999999,48.904999999999994 C533.517,9.986999999999995 499.801,-19.75 459.126,-19.75 C418.023,-19.75 384.03,10.62299999999999 378.324,50.146 C374.87,49.340999999999994 371.279,48.904999999999994 367.586,48.904999999999994 C341.446,48.904999999999994 320.25,70.097 320.25,96.237 C320.25,122.37799999999999 341.446,143.57 367.586,143.57 C367.586,143.57 574.599,143.57 574.599,143.57 C600.739,143.57 621.928,122.37799999999999 621.928,96.237 C621.928,70.097 600.739,48.904999999999994 574.599,48.904999999999994z" style="fill: rgb(238, 238, 238); fill-opacity: 1;"></path></g><g transform="matrix(0.6880000000000001,0,0,0.6880000000000001,-1052.1700840000003,107.79251600000003)" style="-webkit-user-select: none;"><path d=" M170.677,224.612 C170.35399999999998,257.374 143.534,283.67 110.773,283.348 C78.014,283.025 51.71799999999999,256.203 52.03999999999999,223.444 C52.36299999999999,190.682 79.18199999999999,164.386 111.94399999999999,164.709 C144.699,165.031 171,191.85 170.677,224.612z" style="fill: rgb(238, 238, 238); fill-opacity: 1;"></path><path d=" M88.892,207.599 C88.892,207.599 38.58800000000001,207.10299999999998 38.58800000000001,207.10299999999998 C17.739000000000004,206.897 0.6610000000000085,223.635 0.4550000000000054,244.494 C0.24900000000000233,265.351 16.993000000000002,282.423 37.843,282.63 C37.843,282.63 110.773,283.348 110.773,283.348 C110.773,283.348 88.892,207.599 88.892,207.599z" style="fill: rgb(238, 238, 238); fill-opacity: 1;"></path><path d=" M113.768,227.247 C113.768,227.247 186.925,227.97000000000003 186.925,227.97000000000003 C202.414,228.12300000000002 214.857,240.81 214.704,256.30600000000004 C214.548,271.805 201.864,284.24600000000004 186.371,284.093 C186.371,284.093 96.404,283.20500000000004 96.404,283.20500000000004 C96.404,283.20500000000004 113.768,227.247 113.768,227.247z" style="fill: rgb(238, 238, 238); fill-opacity: 1;"></path><path d=" M910.927,68.905 C910.927,68.905 876.071,68.905 876.071,68.905 C869.845,29.986999999999995 836.129,0.25 795.4540000000001,0.25 C754.351,0.25 720.3580000000001,30.62299999999999 714.652,70.146 C711.1980000000001,69.341 707.607,68.905 703.914,68.905 C677.774,68.905 656.578,90.097 656.578,116.237 C656.578,142.378 677.774,163.57 703.914,163.57 C703.914,163.57 910.927,163.57 910.927,163.57 C937.067,163.57 958.2560000000001,142.378 958.2560000000001,116.237 C958.2560000000001,90.097 937.067,68.905 910.927,68.905z" style="fill: rgb(238, 238, 238); fill-opacity: 1;"></path></g><g transform="matrix(0.86,0,0,0.86,105.08323999999993,128.34771999999998)" style="-webkit-user-select: none;"><path d=" M250.411,383.469 C250.411,383.469 257.321,357.737 257.321,357.737 C257.321,357.737 244.014,357.737 244.014,357.737 C214.39,211.78799999999998 213.528,77.517 214.557,26.004999999999995 C214.557,26.004999999999995 215.272,0.25 215.272,0.25 C215.272,0.25 189.213,0.25 189.213,0.25 C189.213,0.25 189.93,26.004999999999995 189.93,26.004999999999995 C190.958,77.517 190.095,211.78799999999998 160.471,357.737 C160.471,357.737 147.42,357.737 147.42,357.737 C147.42,357.737 154.32999999999998,383.469 154.32999999999998,383.469 C154.32999999999998,383.469 250.411,383.469 250.411,383.469z M202.244,266.557 C204.736,296.935 208.012,328.025 212.309,358.695 C212.309,358.695 205.716,358.695 205.716,358.695 C205.716,358.695 192.177,358.695 192.177,358.695 C196.475,328.025 199.749,296.935 202.244,266.557z M108.85499999999999,535.2860000000001 C108.85499999999999,535.2860000000001 102.78699999999999,512.5799999999999 102.78699999999999,512.5799999999999 C102.78699999999999,512.5799999999999 118.631,512.5799999999999 118.631,512.5799999999999 C132.699,473.832 144.024,435.084 153.164,396.335 C153.164,396.335 190.76,396.335 190.76,396.335 C184.389,435.084 176.286,473.832 165.97299999999998,512.5799999999999 C165.97299999999998,512.5799999999999 215.272,512.5799999999999 215.272,512.5799999999999 C215.272,512.5799999999999 230.914,512.5799999999999 230.914,512.5799999999999 C230.914,512.5799999999999 238.513,512.5799999999999 238.513,512.5799999999999 C227.996,473.06399999999996 220.026,434.71299999999997 213.72299999999998,396.335 C213.72299999999998,396.335 251.321,396.335 251.321,396.335 C260.46299999999997,435.084 271.787,473.832 285.855,512.5799999999999 C285.855,512.5799999999999 301.954,512.5799999999999 301.954,512.5799999999999 C301.954,512.5799999999999 295.888,535.2860000000001 295.888,535.2860000000001 C295.888,535.2860000000001 108.85499999999999,535.2860000000001 108.85499999999999,535.2860000000001z M404.236,710.26 C404.236,710.26 321.868,710.26 321.868,710.26 C321.868,710.26 310.108,679.901 303.44399999999996,665.893 C285.421,627.999 245.829,598.437 199.888,598.437 C153.831,598.437 114.15599999999999,628.146 96.195,666.177 C89.61699999999999,680.106 77.585,710.26 77.585,710.26 C77.585,710.26 0.25,710.26 0.25,710.26 C45.067999999999984,661.5840000000001 79.38300000000001,605.22 105.667,548.453 C105.667,548.453 298.81899999999996,548.453 298.81899999999996,548.453 C325.102,605.22 359.41999999999996,661.5840000000001 404.236,710.26z" style="fill: rgb(245, 245, 246); fill-opacity: 1;"></path></g><g opacity="1" style="-webkit-user-select: none;"><g transform="matrix(0.86,0,0,0.86,294.5197399999999,794.76)" style="-webkit-user-select: none;"><path d=" M0.8090000000000259,9.225999999999999 C0.8090000000000259,13.977 138.096,17.83 307.435,17.83 C476.775,17.83 614.0609999999999,13.975 614.0609999999999,9.224 C614.0609999999999,4.472999999999999 476.775,0.6199999999999992 307.435,0.6199999999999992 C138.096,0.6199999999999992 0.8090000000000259,4.475 0.8090000000000259,9.225999999999999z" style="fill: rgb(230, 230, 230); fill-opacity: 1;"></path></g><g transform="matrix(0.8576959436121996,-0.06291000167841662,0.06291000167841662,0.8576959436121996,437.41015639299786,346.1545996119572)" style="-webkit-user-select: none;"><path d=" M40.058,35.396 C41.326,38.537000000000006 44.157,38.231 44.266,36.551 C44.455,33.648 45.624,29.456000000000003 45.105,26.748000000000005 C44.721,24.743000000000002 46.027,22.807000000000002 48.034,22.419 C50.028,22.033 51.961,23.343 52.35,25.35 C53.559,31.592000000000002 52.272999999999996,36.343 52.009,41.878 C51.685,48.691 46.438,52.102000000000004 49.077,57.581 C49.952,59.398 40.589,60.363 37.718,57.581 C36.758,56.648 31.701,43.45 32.62,37.003 C33.143,33.335 39.161,33.176 40.058,35.396z" style="fill: rgb(241, 177, 59); fill-opacity: 1;"></path><path d=" M29.925000000000004,36.424 C29.925000000000004,36.424 27.888000000000005,6.034000000000001 27.888000000000005,6.034000000000001 C27.719000000000005,3.9480000000000004 29.262000000000004,2.100999999999999 31.350000000000005,1.9190000000000005 C33.44500000000001,1.7370000000000019 35.287000000000006,3.2859999999999996 35.474000000000004,5.381 C35.474000000000004,5.381 37.508,35.768 37.508,35.768 C37.68300000000001,37.862 36.138000000000005,39.701 34.044000000000004,39.882999999999996 C31.953000000000003,40.065 30.109000000000005,38.519 29.925000000000004,36.424z" style="fill: rgb(241, 177, 59); fill-opacity: 1;"></path><path d=" M22.596999999999998,31.71 C22.596999999999998,31.71 16.365,5.988999999999999 16.365,5.988999999999999 C15.878999999999998,3.9499999999999993 17.132999999999996,1.8930000000000007 19.173,1.4009999999999998 C21.208999999999996,0.9089999999999989 23.269,2.161999999999999 23.764999999999997,4.201999999999998 C23.764999999999997,4.201999999999998 29.993,29.927 29.993,29.927 C30.482999999999997,31.965999999999998 29.227999999999998,34.022999999999996 27.188999999999997,34.515 C25.148999999999997,35.007 23.089999999999996,33.756 22.596999999999998,31.71z" style="fill: rgb(241, 177, 59); fill-opacity: 1;"></path><path d=" M7.532,12.072999999999997 C7.202,10.289999999999997 8.174,8.472999999999997 9.934000000000001,7.810999999999996 C11.9,7.075999999999997 14.096,8.070999999999998 14.831,10.036999999999997 C14.831,10.036999999999997 23.874000000000002,34.138 23.874000000000002,34.138 C24.630000000000003,36.108 23.621000000000002,38.297999999999995 21.656,39.028999999999996 C19.689,39.768 17.490000000000002,38.777 16.755,36.806999999999995 C16.755,36.806999999999995 7.711,12.711999999999996 7.711,12.711999999999996 C7.635,12.498999999999997 7.568,12.285999999999996 7.532,12.072999999999997z" style="fill: rgb(241, 177, 59); fill-opacity: 1;"></path><path d=" M-2.2270000000000003,24.155 C-2.715,22.661 -2.232000000000001,20.958000000000002 -0.9090000000000007,19.956000000000003 C0.7669999999999995,18.687 3.1479999999999997,19.015 4.4239999999999995,20.69 C4.4239999999999995,20.69 20.727,42.226 20.727,42.226 C21.985,43.901 21.668999999999997,46.286 19.988999999999997,47.557 C18.314999999999998,48.823 15.931,48.492000000000004 14.663,46.816 C14.663,46.816 -1.6390000000000011,25.282000000000004 -1.6390000000000011,25.282000000000004 C-1.9070000000000018,24.935000000000002 -2.0969999999999995,24.553 -2.2270000000000003,24.155z" style="fill: rgb(241, 177, 59); fill-opacity: 1;"></path><path d=" M17.094,52.61 C12.456,44.352000000000004 11.236999999999998,39.03 12.079999999999998,37.362 C12.922999999999998,35.694 17.166,30.653000000000002 17.166,30.653000000000002 C17.166,30.653000000000002 25.788,27.145000000000003 25.788,27.145000000000003 C25.788,27.145000000000003 33.001,24.071000000000005 35.125,26.489000000000004 C37.248999999999995,28.907000000000004 38.85,32.385000000000005 38.85,32.385000000000005 C38.85,32.385000000000005 50.814,61.325 50.814,61.325 C50.814,61.325 54.827,73.12700000000001 47.105999999999995,76.73 C36.153,81.84100000000001 28.921,72.393 28.921,72.393 C28.921,72.393 19.912,57.637 17.094,52.61z" style="fill: rgb(241, 177, 59); fill-opacity: 1;"></path></g><g transform="matrix(0.8506222944188082,-0.12665588118078927,0.12665588118078927,0.8506222944188082,255.58501559699215,531.6498522415666)" style="-webkit-user-select: none;"><g style="stroke-linecap: butt; stroke-linejoin: round; fill-opacity: 0; stroke: rgb(41, 98, 255); stroke-opacity: 1; stroke-width: 34;"><path d=" M305,-55.5 C305,-55.5 272.5,-114.5 272.5,-114.5"></path></g></g><g transform="matrix(0.84885544564642,-0.13800156664479424,0.13800156664479424,0.84885544564642,256.7535900158229,535.0122262012205)" style="-webkit-user-select: none;"><g style="stroke-linecap: round; stroke-linejoin: round; fill-opacity: 0; stroke: rgb(41, 98, 255); stroke-opacity: 1; stroke-width: 34;"><path d=" M392.5,-59 C392.5,-59 305,-55.5 305,-55.5"></path></g></g><g transform="matrix(0.8599992030843989,0.001170766500608945,-0.001170766500608945,0.8599992030843989,564.5954369453223,398.26831316750247)" style="-webkit-user-select: none;"><path d=" M29.86,0.8650000000000002 C29.86,0.8650000000000002 36.248000000000005,22.585 36.248000000000005,22.585 C36.248000000000005,22.585 6.437000000000001,30.250999999999998 6.437000000000001,30.250999999999998 C6.437000000000001,30.250999999999998 0.9000000000000021,5.125 0.9000000000000021,5.125 C0.9000000000000021,5.125 29.86,0.8650000000000002 29.86,0.8650000000000002z" style="fill: rgb(237, 161, 41); fill-opacity: 1;"></path></g><g transform="matrix(0.7542303421946104,-0.41320284475424524,0.41320284475424524,0.7542303421946104,556.0407591970584,709.137348902361)" style="-webkit-user-select: none;"><g style="stroke-linecap: round; stroke-linejoin: round; fill-opacity: 0; stroke: rgb(68, 68, 68); stroke-opacity: 1; stroke-width: 17.035;"><path d=" M43.106,43.016 C43.106,43.016 64.825,43.016 64.825,43.016"></path></g></g><g transform="matrix(5.265981236333619e-17,-0.86,0.86,5.265981236333619e-17,546.59692,748.4963)" style="-webkit-user-select: none;"><g style="stroke-linecap: round; stroke-linejoin: round; fill-opacity: 0; stroke: rgb(135, 204, 171); stroke-opacity: 1; stroke-width: 13.628;"><path d=" M46.163,35.044 C46.163,35.044 34.605000000000004,77.312 34.605000000000004,77.312"></path></g></g><g transform="matrix(0.7542303421946104,-0.41320284475424524,0.41320284475424524,0.7542303421946104,546.8059459178373,688.7009543157926)" style="-webkit-user-select: none;"><path d=" M54.288,47.846000000000004 C54.288,47.846000000000004 89.90599999999999,47.846000000000004 89.90599999999999,47.846000000000004 C89.90599999999999,47.846000000000004 90.606,8.777000000000001 81.363,3.210000000000001 C72.11999999999999,-2.3569999999999993 70.009,0.46199999999999974 62.41,2.6580000000000013 C54.81099999999999,4.854000000000003 54.288,47.846000000000004 54.288,47.846000000000004z" style="fill: rgb(241, 136, 127); fill-opacity: 1;"></path><path d=" M89.904,56.17 C89.904,56.17 89.904,30.497999999999998 89.904,30.497999999999998 C74.177,30.497999999999998 63.77,25.178 63.77,25.178 C63.77,25.178 64.695,16.621 55.675000000000004,16.621 C46.655,16.621 48.046,25.178 44.113,31.423000000000002 C40.184000000000005,37.668 26.263000000000005,46.92 12.891000000000005,46.918 C5.026000000000003,46.918 1.0940000000000012,49.695 1.0940000000000012,55.475 C1.0940000000000012,61.257000000000005 89.904,56.17 89.904,56.17z" style="fill: rgb(68, 69, 69); fill-opacity: 1;"></path><path d=" M1.0940000000000012,62.415 C1.0940000000000012,62.415 89.904,62.415 89.904,62.415 C89.904,62.415 89.904,55.478 89.904,55.478 C89.904,55.478 1.0940000000000012,55.475 1.0940000000000012,55.475 C1.0940000000000012,55.475 1.0940000000000012,62.415 1.0940000000000012,62.415z" style="fill: rgb(94, 94, 94); fill-opacity: 1;"></path></g><g transform="matrix(0.86,0,0,0.86,561.97974,480)" style="-webkit-user-select: none;"><g style="stroke-linecap: butt; stroke-linejoin: miter; fill-opacity: 0; stroke-miterlimit: 4; stroke: rgb(68, 69, 69); stroke-opacity: 1; stroke-width: 46;"><path d=" M97,37 C97,37 14.625,92.375 7.75,113.563 C1.2439999999999998,133.633 54.438,218.375 54.438,218.375"></path></g></g><g transform="matrix(0.86,0,0,0.86,643.3039200000001,513.6819)" style="-webkit-user-select: none;"><path d=" M2,-25.25 C14.693699999999998,-25.25 25,-14.943699999999998 25,-2.25 C25,10.443699999999998 14.693699999999998,20.75 2,20.75 C-10.693699999999998,20.75 -21,10.443699999999998 -21,-2.25 C-21,-14.943699999999998 -10.693699999999998,-25.25 2,-25.25z M2,-25.25 C14.693699999999998,-25.25 25,-14.943699999999998 25,-2.25 C25,10.443699999999998 14.693699999999998,20.75 2,20.75 C-10.693699999999998,20.75 -21,10.443699999999998 -21,-2.25 C-21,-14.943699999999998 -10.693699999999998,-25.25 2,-25.25z" style="fill: rgb(68, 69, 69); fill-opacity: 1;"></path></g><g transform="matrix(0.86,0,0,0.86,271.2997399999999,487.74)" style="-webkit-user-select: none;"><g style="stroke-linecap: round; stroke-linejoin: round; fill-opacity: 0; stroke: rgb(163, 163, 163); stroke-opacity: 1; stroke-width: 13.628;"><path d=" M238.55800000000002,91.913 C238.55800000000002,91.913 238.55800000000002,48.757999999999996 238.55800000000002,48.757999999999996 C238.55800000000002,48.757999999999996 212.436,34.565 212.436,34.565"></path></g><g style="stroke-linecap: butt; stroke-linejoin: miter; fill-opacity: 0; stroke-miterlimit: 10; stroke: rgb(163, 163, 163); stroke-opacity: 1; stroke-width: 3.407;"><path d=" M358.083,288.665 C419.499,281 512.751,283.297 512.5,283 C522.072,276.891 530.328,256.25600000000003 531.551,251.479"></path></g><g style="stroke-linecap: round; stroke-linejoin: round; fill-opacity: 0; stroke: rgb(163, 163, 163); stroke-opacity: 1; stroke-width: 3.407;"><path d=" M358.084,228.474 C358.084,228.474 462.46500000000003,232.524 511.896,232.524"></path></g><path d=" M531.553,251.478 C531.553,251.478 534.96,282.704 512.249,282.704 C512.249,282.704 512.249,251.478 512.249,251.478 C512.249,251.478 531.553,251.478 531.553,251.478z" style="fill: rgb(163, 163, 163); fill-opacity: 1;"></path><path d=" M511.879,230.501 C524.0208,230.501 533.879,240.35920000000002 533.879,252.501 C533.879,264.6428 524.0208,274.501 511.879,274.501 C499.73720000000003,274.501 489.879,264.6428 489.879,252.501 C489.879,240.35920000000002 499.73720000000003,230.501 511.879,230.501z M511.879,230.501 C524.0208,230.501 533.879,240.35920000000002 533.879,252.501 C533.879,264.6428 524.0208,274.501 511.879,274.501 C499.73720000000003,274.501 489.879,264.6428 489.879,252.501 C489.879,240.35920000000002 499.73720000000003,230.501 511.879,230.501z" style="fill: rgb(163, 163, 163); fill-opacity: 1;"></path><g style="stroke-linecap: butt; stroke-linejoin: miter; fill-opacity: 0; stroke-miterlimit: 10; stroke: rgb(135, 204, 171); stroke-opacity: 1; stroke-width: 20.442;"><path d=" M624.698,255.11399999999998 C624.698,192.677 574.086,142.06 511.65000000000003,142.06 C449.21000000000004,142.06 398.598,192.677 398.598,255.11399999999998"></path></g><g style="stroke-linecap: round; stroke-linejoin: round; fill-opacity: 0; stroke: rgb(68, 68, 68); stroke-opacity: 1; stroke-width: 17;"><path d=" M408.01700000000005,253.811 C408.01700000000005,311.044 454.413,357.444 511.65000000000003,357.444 C568.886,357.444 615.279,311.044 615.279,253.811 C615.279,196.578 568.886,150.178 511.65000000000003,150.178 C454.413,150.178 408.01700000000005,196.578 408.01700000000005,253.811z"></path></g><g style="stroke-linecap: round; stroke-linejoin: round; fill-opacity: 0; stroke: rgb(135, 204, 171); stroke-opacity: 1; stroke-width: 20.442;"><path d=" M258.413,253.811 C258.413,192.336 208.577,142.499 147.10500000000002,142.499 C132.36599999999999,142.499 118.295,145.364 105.423,150.567"></path></g><path d=" M125.72500000000001,252.499 C125.72500000000001,264.44 135.407,274.109 147.338,274.109 C159.27200000000002,274.109 168.945,264.44 168.945,252.499 C168.945,240.564 159.27200000000002,230.893 147.338,230.893 C135.407,230.893 125.72500000000001,240.568 125.72500000000001,252.499z" style="fill: rgb(163, 163, 163); fill-opacity: 1;"></path><g style="stroke-linecap: round; stroke-linejoin: round; fill-opacity: 0; stroke: rgb(68, 68, 68); stroke-opacity: 1; stroke-width: 17;"><path d=" M43.47300000000001,253.811 C43.47300000000001,311.044 89.86900000000001,357.444 147.10600000000002,357.444 C204.342,357.444 250.735,311.044 250.735,253.811 C250.735,196.578 204.342,150.178 147.10600000000002,150.178 C89.86900000000001,150.178 43.47300000000001,196.578 43.47300000000001,253.811z"></path></g><g style="stroke-linecap: round; stroke-linejoin: round; fill-opacity: 0; stroke: rgb(163, 163, 163); stroke-opacity: 1; stroke-width: 13.628;"><path d=" M413.558,89.413 C413.558,89.413 426.558,61.257999999999996 426.558,61.257999999999996"></path></g><g style="stroke-linecap: round; stroke-linejoin: round; fill-opacity: 0; stroke: rgb(135, 204, 171); stroke-opacity: 1; stroke-width: 20.442;"><path d=" M146.001,253.175 C218.678,173.681 238.96000000000004,89.61500000000001 238.96000000000004,89.61500000000001 C238.96000000000004,89.61500000000001 414.89300000000003,89.61500000000001 414.89300000000003,89.61500000000001 C414.89300000000003,89.61500000000001 480.73300000000006,250.337 480.73300000000006,250.337"></path></g><path d=" M403.252,61.038 C391.863,61.038 391.86,47.969 403.252,47.969 C403.252,47.969 458.12600000000003,47.969 458.12600000000003,47.969 C465.919,47.969 472.24,53.958 472.24,61.347 C472.24,68.737 465.919,74.727 458.12600000000003,74.727 C441.44100000000003,74.727 433.353,61.038 403.252,61.038z" style="fill: rgb(68, 68, 68); fill-opacity: 1;"></path><g style="stroke-linecap: round; stroke-linejoin: round; fill-opacity: 0; stroke: rgb(135, 204, 171); stroke-opacity: 1; stroke-width: 20.442;"><path d=" M228.89600000000002,120.31 C276.593,207.756 321.459,254.32 386.192,254.32 C386.192,254.32 512.4480000000001,254.32 512.4480000000001,254.32"></path></g><path d=" M322.178,257.044 C322.178,275.263 336.949,290.025 355.162,290.025 C373.375,290.025 388.14,275.263 388.14,257.044 C388.14,238.831 373.375,224.067 355.162,224.067 C336.949,224.067 322.178,238.831 322.178,257.044z" style="fill: rgb(163, 163, 163); fill-opacity: 1;"></path></g><g transform="matrix(0.8599999979042322,0.000060039326219834205,-0.000060039326219834205,0.8599999979042322,559.4065823477783,404.31237524440377)" style="-webkit-user-select: none;"><path d=" M127,113.96100000000001 C127,113.96100000000001 78.647,48.144000000000005 64.819,24.528000000000006 C55.550000000000004,8.698000000000008 43.521,0.6830000000000069 24.783,8.349000000000004 C13.505000000000003,12.963000000000001 1.1379999999999981,25.147000000000006 6.332000000000001,42.419000000000004 C13.463999999999999,66.134 49.774,132.699 49.774,132.699 C49.774,132.699 73.71600000000001,126.89 73.71600000000001,126.89 C73.71600000000001,126.89 87.5,143.501 113.048,139.699 C137.5,135.501 127,113.96100000000001 127,113.96100000000001z" style="fill: rgb(41, 98, 255); fill-opacity: 1;"></path></g><g transform="matrix(-1.5797943709000856e-16,0.86,-0.86,-1.5797943709000856e-16,606.8760399999999,669.1028200000001)" style="-webkit-user-select: none;"><g style="stroke-linecap: round; stroke-linejoin: round; fill-opacity: 0; stroke: rgb(135, 204, 171); stroke-opacity: 1; stroke-width: 13.628;"><path d=" M46.163,35.044 C46.163,35.044 34.605000000000004,77.312 34.605000000000004,77.312"></path></g></g><g transform="matrix(0.8542694828879536,0.09911433098370986,-0.09911433098370986,0.8542694828879536,497.0674041563498,656.2570583626976)" style="-webkit-user-select: none;"><g style="stroke-linecap: round; stroke-linejoin: round; fill-opacity: 0; stroke: rgb(68, 68, 68); stroke-opacity: 1; stroke-width: 17.035;"><path d=" M43.106,43.016 C43.106,43.016 64.825,43.016 64.825,43.016"></path></g></g><g transform="matrix(0.8542694828879536,0.09911433098370986,-0.09911433098370986,0.8542694828879536,501.3529157277023,634.2442804695784)" style="-webkit-user-select: none;"><path d=" M54.288,47.846000000000004 C54.288,47.846000000000004 89.90599999999999,47.846000000000004 89.90599999999999,47.846000000000004 C89.90599999999999,47.846000000000004 89.90599999999999,1.1260000000000012 89.90599999999999,1.1260000000000012 C89.90599999999999,1.1260000000000012 54.288,1.1260000000000012 54.288,1.1260000000000012 C54.288,1.1260000000000012 54.288,47.846000000000004 54.288,47.846000000000004z" style="fill: rgb(241, 136, 127); fill-opacity: 1;"></path><path d=" M89.904,56.17 C89.904,56.17 89.904,30.497999999999998 89.904,30.497999999999998 C74.177,30.497999999999998 63.77,25.178 63.77,25.178 C63.77,25.178 64.695,16.621 55.675000000000004,16.621 C46.655,16.621 48.046,25.178 44.113,31.423000000000002 C40.184000000000005,37.668 26.263000000000005,46.92 12.891000000000005,46.918 C5.026000000000003,46.918 1.0940000000000012,49.695 1.0940000000000012,55.475 C1.0940000000000012,61.257000000000005 89.904,56.17 89.904,56.17z" style="fill: rgb(68, 69, 69); fill-opacity: 1;"></path><path d=" M1.0940000000000012,62.415 C1.0940000000000012,62.415 89.904,62.415 89.904,62.415 C89.904,62.415 89.904,55.478 89.904,55.478 C89.904,55.478 1.0940000000000012,55.475 1.0940000000000012,55.475 C1.0940000000000012,55.475 1.0940000000000012,62.415 1.0940000000000012,62.415z" style="fill: rgb(94, 94, 94); fill-opacity: 1;"></path></g><g transform="matrix(0.86,0,0,0.86,644.5397399999999,513.97)" style="-webkit-user-select: none;"><path d=" M0,-30.5 C17.1089,-30.5 31,-16.6089 31,0.5 C31,17.6089 17.1089,31.5 0,31.5 C-17.1089,31.5 -31,17.6089 -31,0.5 C-31,-16.6089 -17.1089,-30.5 0,-30.5z M0,-30.5 C17.1089,-30.5 31,-16.6089 31,0.5 C31,17.6089 17.1089,31.5 0,31.5 C-17.1089,31.5 -31,17.6089 -31,0.5 C-31,-16.6089 -17.1089,-30.5 0,-30.5z" style="fill: rgb(110, 110, 110); fill-opacity: 1;"></path></g><g transform="matrix(0.86,0,0,0.86,561.97974,480)" style="-webkit-user-select: none;"><g style="stroke-linecap: butt; stroke-linejoin: miter; fill-opacity: 0; stroke-miterlimit: 4; stroke: rgb(110, 110, 110); stroke-opacity: 1; stroke-width: 59;"><path d=" M96,39.5 C96,39.5 9.1,73.264 -3.4,91.264 C-13.623000000000001,105.98599999999999 -4.644,203.893 -4.644,203.893"></path></g></g><g transform="matrix(0.8599999979042322,0.000060039326219834205,-0.000060039326219834205,0.8599999979042322,559.4065823477783,404.31237524440377)" style="-webkit-user-select: none;"><path d=" M127,113.96100000000001 C127,113.96100000000001 78.647,48.144000000000005 64.819,24.528000000000006 C55.550000000000004,8.698000000000008 43.521,0.6830000000000069 24.783,8.349000000000004 C13.505000000000003,12.963000000000001 1.1379999999999981,25.147000000000006 6.332000000000001,42.419000000000004 C13.463999999999999,66.134 36.774,102.19900000000001 36.774,102.19900000000001 C36.774,102.19900000000001 49.806000000000004,107.05600000000001 67.57600000000001,108.511 C85.346,109.96600000000001 127,113.96100000000001 127,113.96100000000001z" style="fill: rgb(41, 98, 255); fill-opacity: 1;"></path></g><g transform="matrix(0.86,0,0,0.86,437.2797399999999,484.3)" style="-webkit-user-select: none;"><path d=" M58.071,30.534999999999997 C31.816999999999997,44.629 27.973999999999997,41.777 16.705,44.888 C16.116,45.061 15.322999999999997,46.998999999999995 17.046999999999997,48.897999999999996 C18.714,50.754999999999995 22.230999999999998,50.977999999999994 26.473,51.916 C30.153,52.724 30.029999999999998,57.922 28.412999999999997,57.768 C21.049999999999997,57.083 13.267999999999997,55.729 10.832999999999998,52.412 C6.736999999999998,46.812 1.1709999999999994,28.514 10.093999999999998,24.903 C25.961,18.485 39.245999999999995,13.999999999999998 51.131,9.169999999999998 C71.862,0.7389999999999972 69.113,24.605999999999998 58.071,30.534999999999997z" style="fill: rgb(241, 177, 59); fill-opacity: 1;"></path></g><g transform="matrix(0.86,0,0,0.86,445.8797399999999,510.1)" style="-webkit-user-select: none;"><path d=" M23.054,11.253 C23.054,5.214 18.16,0.3230000000000004 12.120999999999999,0.3230000000000004 C6.085999999999999,0.3230000000000004 1.1920000000000002,5.214 1.1920000000000002,11.253 C1.1920000000000002,17.288 6.085999999999999,22.183 12.120999999999999,22.183 C18.16,22.183 23.054,17.288 23.054,11.253z" style="fill: rgb(68, 68, 68); fill-opacity: 1;"></path></g><g transform="matrix(0.86,0,0,0.86,561.97974,480)" style="-webkit-user-select: none;"><g style="stroke-linecap: butt; stroke-linejoin: miter; fill-opacity: 0; stroke-miterlimit: 4; stroke: rgb(72, 123, 250); stroke-opacity: 1; stroke-width: 34;"><path d=" M-98.75,34 C-98.75,34 -30.111,0.7120000000000002 -26.5,-1.625 C-22.25,-4.375 30.375,-68.5 30.375,-68.5"></path></g></g><g transform="matrix(0.86,0,0,0.86,586.6935599999999,422.60016)" style="-webkit-user-select: none;"><path d=" M0,-17 C9.382299999999999,-17 17,-9.382299999999999 17,0 C17,9.382299999999999 9.382299999999999,17 0,17 C-9.382299999999999,17 -17,9.382299999999999 -17,0 C-17,-9.382299999999999 -9.382299999999999,-17 0,-17z M0,-17 C9.382299999999999,-17 17,-9.382299999999999 17,0 C17,9.382299999999999 9.382299999999999,17 0,17 C-9.382299999999999,17 -17,9.382299999999999 -17,0 C-17,-9.382299999999999 -9.382299999999999,-17 0,-17z" style="fill: rgb(72, 123, 250); fill-opacity: 1;"></path></g><g transform="matrix(0.8599992030843989,0.001170766500608945,-0.001170766500608945,0.8599992030843989,498.5569671154179,264.8782876688738)" style="-webkit-user-select: none;"><path d=" M120.25200000000001,134.928 C117.554,143.65800000000002 79.794,147.631 79.794,147.631 C79.794,147.631 111.025,172.33499999999998 137.14600000000002,147.065 C137.14600000000002,147.065 125.22300000000001,140.821 134.732,85.314 C146.287,17.86699999999999 40.534,0.9549999999999983 33.161,62.104 C25.119,128.80599999999998 120.25200000000001,134.928 120.25200000000001,134.928z" style="fill: rgb(68, 69, 69); fill-opacity: 1;"></path><path d=" M127.97999999999999,118.578 C127.81700000000001,135.226 119.402,149.857 106.65299999999999,158.62099999999998 C98.618,164.147 88.86,167.34 78.359,167.237 C51.212999999999994,166.971 29.433999999999997,144.752 29.696999999999996,117.613 C29.696999999999996,117.613 29.699999999999996,91.901 29.699999999999996,91.901 C29.967,64.762 52.182,42.98 79.321,43.245999999999995 C106.477,43.513 128.256,65.728 127.983,92.871 C127.983,92.871 127.97999999999999,118.578 127.97999999999999,118.578z" style="fill: rgb(241, 177, 59); fill-opacity: 1;"></path><path d=" M44.482,67.021 C44.482,67.021 41.04600000000001,78.57000000000001 57.016000000000005,95.674 C65.72300000000001,105 55.958,115.069 50.698,120.875 C47.61,124.28200000000001 48.599000000000004,127.78200000000001 53.003,128.434 C59.468,129.392 64.608,130.243 64.608,130.243 C59.435,136.52100000000002 52.906000000000006,149.816 56.30500000000001,161.579 C56.635000000000005,162.72 53.588,161.17000000000002 52.704,160.323 C44.614000000000004,152.575 30.414,140.949 30.126,123.24300000000001 C29.582,89.744 27.826000000000004,67.856 44.482,67.021z" style="fill: rgb(237, 161, 41); fill-opacity: 1;"></path><g style="stroke-linecap: round; stroke-linejoin: round; fill-opacity: 0; stroke: rgb(68, 68, 69); stroke-opacity: 1; stroke-width: 5.11;"><path d=" M37.785999999999994,93.629 C45.934,87.504 54.662,92.288 54.662,92.288"></path></g><g style="stroke-linecap: round; stroke-linejoin: round; fill-opacity: 0; stroke: rgb(68, 68, 69); stroke-opacity: 1; stroke-width: 5.11;"><path d=" M75.91199999999999,92.061 C85.05199999999999,87.542 92.746,93.851 92.746,93.851"></path></g><g style="stroke-linecap: round; stroke-linejoin: round; fill-opacity: 0; stroke: rgb(68, 69, 69); stroke-opacity: 1; stroke-width: 2.555;"><path d=" M53.919,107 C52.997,104.17200000000001 50.378,102.10900000000001 47.241,102.083 C44.11,102.049 41.445,104.06 40.477000000000004,106.86800000000001"></path></g><g style="stroke-linecap: round; stroke-linejoin: round; fill-opacity: 0; stroke: rgb(68, 69, 69); stroke-opacity: 1; stroke-width: 2.555;"><path d=" M89.479,107.35199999999999 C88.561,104.524 85.93900000000001,102.46499999999999 82.802,102.432 C79.674,102.401 77.009,104.41199999999999 76.04100000000001,107.22"></path></g><g style="stroke-linecap: round; stroke-linejoin: round; fill-opacity: 0; stroke: rgb(240, 91, 91); stroke-opacity: 1; stroke-width: 2.555;"><path d=" M53.06700000000001,135.992 C56.108000000000004,139.29899999999998 60.43300000000001,141.396 65.29100000000001,141.396 C70.14800000000001,141.396 74.47300000000001,139.29899999999998 77.525,135.992"></path></g><path d=" M140.331,113.578 C140.261,120.395 134.671,125.872 127.85,125.806 C121.03299999999999,125.739 115.56,120.149 115.624,113.335 C115.69399999999999,106.512 121.282,101.038 128.096,101.101 C134.917,101.17099999999999 140.397,106.754 140.331,113.578z" style="fill: rgb(241, 177, 59); fill-opacity: 1;"></path><path d=" M29.648,98.303 C29.648,98.303 27.411999999999995,60.614000000000004 49.131,67.427 C49.131,67.427 55.093999999999994,48.69 55.093999999999994,48.69 C31.671,32.507000000000005 0.6890000000000001,72.325 29.648,98.303z" style="fill: rgb(68, 69, 69); fill-opacity: 1;"></path><path d=" M49.131,67.42699999999999 C77.664,43.577999999999996 115.56700000000001,60.187 110.03,88.295 C104.494,116.402 120.684,123.781 120.684,123.781 C120.684,123.781 114.678,105.544 128.096,101.102 C137.24599999999998,98.071 121.412,31.174999999999997 86.608,30.802 C48.242,30.39 49.131,67.42699999999999 49.131,67.42699999999999z" style="fill: rgb(68, 69, 69); fill-opacity: 1;"></path></g></g><g transform="matrix(0.569406,0,0,0.569406,269.61929509799984,215.86271113600003)" style="-webkit-user-select: none;"><path d=" M266.784,88.463 C266.784,137.183 227.28699999999998,176.676 178.57299999999998,176.676 C178.57299999999998,176.676 88.464,176.676 88.464,176.676 C39.74799999999999,176.676 0.25,137.183 0.25,88.463 C0.25,39.742999999999995 39.74799999999999,0.25 88.464,0.25 C88.464,0.25 178.57299999999998,0.25 178.57299999999998,0.25 C227.28699999999998,0.25 266.784,39.742999999999995 266.784,88.463z" style="fill: rgb(238, 238, 238); fill-opacity: 1;"></path><path d=" M222.482,109.75800000000001 C222.482,109.75800000000001 245.481,200.052 245.481,200.052 C245.481,200.052 177.76100000000002,145.961 177.76100000000002,145.961 C177.76100000000002,145.961 222.482,109.75800000000001 222.482,109.75800000000001z" style="fill: rgb(236, 236, 236); fill-opacity: 1;"></path><g style="stroke-linecap: round; stroke-linejoin: round; fill-opacity: 0; stroke: rgb(236, 236, 236); stroke-opacity: 1; stroke-width: 6.815;"><path d=" M222.482,109.75800000000001 C222.482,109.75800000000001 245.481,200.052 245.481,200.052 C245.481,200.052 177.76100000000002,145.961 177.76100000000002,145.961 C177.76100000000002,145.961 222.482,109.75800000000001 222.482,109.75800000000001z"></path></g><path d=" M87.217,98.22 C87.217,97.074 87.03,96.056 86.658,95.167 C86.285,94.279 85.655,93.46799999999999 84.767,92.732 C83.878,91.996 82.706,91.323 81.25399999999999,90.711 C79.80199999999999,90.1 77.988,89.488 75.809,88.87599999999999 C73.707,88.283 71.815,87.63799999999999 70.134,86.94099999999999 C68.452,86.243 67.023,85.42699999999999 65.848,84.49 C64.672,83.554 63.765,82.47399999999999 63.123999999999995,81.25099999999999 C62.485,80.029 62.165,78.595 62.165,76.951 C62.165,75.34599999999999 62.509,73.88499999999999 63.196999999999996,72.566 C63.885,71.247 64.85,70.116 66.092,69.16999999999999 C67.334,68.22399999999999 68.816,67.488 70.535,66.96199999999999 C72.255,66.437 74.136,66.175 76.181,66.175 C78.378,66.175 80.362,66.499 82.12899999999999,67.149 C83.89699999999999,67.798 85.401,68.68799999999999 86.643,69.815 C87.88499999999999,70.943 88.841,72.262 89.50999999999999,73.771 C90.179,75.28099999999999 90.514,76.905 90.514,78.64399999999999 C90.514,78.64399999999999 86.958,78.64399999999999 86.958,78.64399999999999 C86.958,77.28699999999999 86.719,76.03 86.241,74.87299999999999 C85.764,73.71799999999999 85.067,72.719 84.14999999999999,71.878 C83.232,71.03699999999999 82.105,70.37899999999999 80.767,69.901 C79.429,69.42399999999999 77.901,69.185 76.181,69.185 C74.461,69.185 72.947,69.389 71.639,69.8 C70.329,70.211 69.24,70.765 68.371,71.46199999999999 C67.501,72.16 66.841,72.978 66.392,73.91399999999999 C65.943,74.851 65.72,75.844 65.72,76.89399999999999 C65.72,77.88799999999999 65.904,78.80499999999999 66.27799999999999,79.646 C66.651,80.487 67.276,81.265 68.155,81.982 C69.033,82.699 70.191,83.369 71.624,83.99 C73.05799999999999,84.61099999999999 74.823,85.198 76.926,85.75099999999999 C79.12299999999999,86.363 81.083,87.032 82.803,87.758 C84.523,88.484 85.975,89.339 87.16,90.323 C88.345,91.30699999999999 89.241,92.44 89.854,93.72 C90.465,95 90.77199999999999,96.482 90.77199999999999,98.16399999999999 C90.77199999999999,99.865 90.41199999999999,101.387 89.695,102.735 C88.979,104.082 87.98599999999999,105.22399999999999 86.715,106.16 C85.444,107.096 83.929,107.81299999999999 82.17099999999999,108.31 C80.413,108.806 78.502,109.05499999999999 76.439,109.05499999999999 C75.196,109.05499999999999 73.95,108.94999999999999 72.699,108.74 C71.447,108.529 70.243,108.21 69.087,107.78099999999999 C67.931,107.35 66.851,106.80099999999999 65.848,106.131 C64.844,105.463 63.974999999999994,104.66499999999999 63.239,103.738 C62.503,102.81099999999999 61.922,101.752 61.491,100.55699999999999 C61.062,99.363 60.846,98.03 60.846,96.55799999999999 C60.846,96.55799999999999 64.371,96.55799999999999 64.371,96.55799999999999 C64.371,98.317 64.73599999999999,99.803 65.462,101.01599999999999 C66.188,102.229 67.12299999999999,103.20899999999999 68.27,103.954 C69.416,104.699 70.707,105.238 72.14,105.573 C73.573,105.907 75.006,106.074 76.439,106.074 C78.063,106.074 79.539,105.88799999999999 80.86699999999999,105.51599999999999 C82.195,105.143 83.332,104.613 84.27799999999999,103.925 C85.22399999999999,103.237 85.951,102.411 86.457,101.446 C86.964,100.481 87.217,99.405 87.217,98.22z" style="fill: rgb(0, 0, 0); fill-opacity: 1;"></path><path d=" M117.14200000000001,108.48299999999999 C116.95100000000001,107.948 116.802,107.29299999999999 116.697,106.51899999999999 C116.592,105.746 116.52000000000001,104.957 116.482,104.155 C115.96600000000001,104.824 115.355,105.454 114.64800000000001,106.04499999999999 C113.941,106.63799999999999 113.147,107.155 112.268,107.594 C111.38900000000001,108.03399999999999 110.426,108.38799999999999 109.375,108.655 C108.32300000000001,108.922 107.186,109.056 105.964,109.056 C104.45400000000001,109.056 103.083,108.836 101.85000000000001,108.39699999999999 C100.61800000000001,107.957 99.566,107.341 98.697,106.548 C97.828,105.755 97.15400000000001,104.824 96.677,103.753 C96.19900000000001,102.684 95.96000000000001,101.518 95.96000000000001,100.256 C95.96000000000001,98.747 96.285,97.386 96.934,96.172 C97.584,94.958 98.52000000000001,93.92699999999999 99.744,93.076 C100.967,92.226 102.452,91.57499999999999 104.20100000000001,91.12599999999999 C105.94900000000001,90.67699999999999 107.91300000000001,90.454 110.09100000000001,90.454 C110.09100000000001,90.454 116.45400000000001,90.454 116.45400000000001,90.454 C116.45400000000001,90.454 116.45400000000001,86.928 116.45400000000001,86.928 C116.45400000000001,84.711 115.77000000000001,82.967 114.40400000000001,81.696 C113.03800000000001,80.425 111.04700000000001,79.78999999999999 108.42800000000001,79.78999999999999 C107.224,79.78999999999999 106.116,79.952 105.10300000000001,80.27699999999999 C104.09100000000001,80.60199999999999 103.217,81.05199999999999 102.48100000000001,81.625 C101.745,82.198 101.17200000000001,82.862 100.76100000000001,83.61699999999999 C100.35000000000001,84.372 100.144,85.17899999999999 100.144,86.03899999999999 C100.144,86.03899999999999 96.70500000000001,86.009 96.70500000000001,86.009 C96.70500000000001,84.844 96.992,83.717 97.565,82.628 C98.138,81.53899999999999 98.94500000000001,80.56899999999999 99.98700000000001,79.719 C101.028,78.869 102.28,78.184 103.742,77.66799999999999 C105.20400000000001,77.15199999999999 106.82300000000001,76.89399999999999 108.60000000000001,76.89399999999999 C110.244,76.89399999999999 111.75800000000001,77.106 113.143,77.526 C114.52900000000001,77.94699999999999 115.718,78.577 116.712,79.41799999999999 C117.70500000000001,80.25899999999999 118.47800000000001,81.31 119.033,82.571 C119.587,83.832 119.86500000000001,85.30399999999999 119.86500000000001,86.985 C119.86500000000001,86.985 119.86500000000001,102.005 119.86500000000001,102.005 C119.86500000000001,102.53999999999999 119.885,103.094 119.923,103.667 C119.96100000000001,104.241 120.022,104.794 120.108,105.329 C120.194,105.86399999999999 120.295,106.37599999999999 120.409,106.863 C120.52300000000001,107.351 120.65700000000001,107.776 120.81,108.139 C120.81,108.139 120.81,108.48299999999999 120.81,108.48299999999999 C120.81,108.48299999999999 117.14200000000001,108.48299999999999 117.14200000000001,108.48299999999999z M106.36500000000001,106.017 C107.60600000000001,106.017 108.759,105.86 109.819,105.54499999999999 C110.88000000000001,105.229 111.84,104.79499999999999 112.69900000000001,104.241 C113.55900000000001,103.68599999999999 114.30300000000001,103.041 114.93400000000001,102.306 C115.56500000000001,101.57 116.072,100.77199999999999 116.45400000000001,99.913 C116.45400000000001,99.913 116.45400000000001,93.08999999999999 116.45400000000001,93.08999999999999 C116.45400000000001,93.08999999999999 110.577,93.08999999999999 110.577,93.08999999999999 C108.819,93.08999999999999 107.24900000000001,93.24799999999999 105.863,93.56299999999999 C104.477,93.87899999999999 103.307,94.333 102.352,94.925 C101.396,95.518 100.664,96.23899999999999 100.158,97.089 C99.65100000000001,97.939 99.399,98.89999999999999 99.399,99.97 C99.399,100.81099999999999 99.561,101.59899999999999 99.88600000000001,102.33399999999999 C100.212,103.07 100.67500000000001,103.71 101.277,104.255 C101.879,104.8 102.60900000000001,105.229 103.468,105.54499999999999 C104.32900000000001,105.86 105.295,106.017 106.36500000000001,106.017z" style="fill: rgb(0, 0, 0); fill-opacity: 1;"></path><path d=" M132.849,108.482 C132.849,108.482 129.411,108.482 129.411,108.482 C129.411,108.482 129.411,64.45400000000001 129.411,64.45400000000001 C129.411,64.45400000000001 132.849,64.45400000000001 132.849,64.45400000000001 C132.849,64.45400000000001 132.849,108.482 132.849,108.482z" style="fill: rgb(0, 0, 0); fill-opacity: 1;"></path><path d=" M162.115,104.555 C161.14,105.969 159.846,107.074 158.231,107.867 C156.617,108.659 154.615,109.055 152.226,109.055 C150.697,109.055 149.312,108.841 148.07,108.411 C146.828,107.981 145.758,107.298 144.86,106.362 C143.962,105.426 143.269,104.217 142.782,102.736 C142.295,101.255 142.05,99.452 142.05,97.331 C142.05,97.331 142.05,77.469 142.05,77.469 C142.05,77.469 145.461,77.469 145.461,77.469 C145.461,77.469 145.461,97.39 145.461,97.39 C145.461,99.053 145.652,100.438 146.034,101.546 C146.416,102.655 146.932,103.542 147.582,104.211 C148.231,104.88 148.992,105.358 149.862,105.645 C150.731,105.931 151.653,106.075 152.62800000000001,106.075 C154.004,106.075 155.217,105.922 156.268,105.617 C157.319,105.311 158.226,104.881 158.991,104.327 C159.756,103.772 160.386,103.122 160.883,102.377 C161.38,101.632 161.77100000000002,100.811 162.058,99.912 C162.058,99.912 162.058,77.469 162.058,77.469 C162.058,77.469 165.498,77.469 165.498,77.469 C165.498,77.469 165.498,108.482 165.498,108.482 C165.498,108.482 162.173,108.482 162.173,108.482 C162.173,108.482 162.115,104.555 162.115,104.555z" style="fill: rgb(0, 0, 0); fill-opacity: 1;"></path><path d=" M179.742,69.528 C179.742,69.528 179.742,77.468 179.742,77.468 C179.742,77.468 186.16299999999998,77.468 186.16299999999998,77.468 C186.16299999999998,77.468 186.16299999999998,80.278 186.16299999999998,80.278 C186.16299999999998,80.278 179.742,80.278 179.742,80.278 C179.742,80.278 179.742,100.944 179.742,100.944 C179.742,102.033 179.852,102.908 180.072,103.56700000000001 C180.291,104.227 180.588,104.741 180.96099999999998,105.114 C181.333,105.486 181.763,105.737 182.25,105.861 C182.737,105.985 183.249,106.046 183.784,106.046 C184.29999999999998,106.046 184.797,106.013 185.274,105.946 C185.75199999999998,105.88 186.18099999999998,105.81700000000001 186.564,105.759 C186.564,105.759 186.708,108.569 186.708,108.569 C186.28699999999998,108.72200000000001 185.737,108.84100000000001 185.059,108.926 C184.381,109.012 183.707,109.056 183.039,109.056 C182.064,109.056 181.161,108.927 180.32999999999998,108.67 C179.499,108.411 178.78699999999998,107.967 178.194,107.337 C177.601,106.706 177.138,105.869 176.804,104.827 C176.47,103.786 176.303,102.491 176.303,100.944 C176.303,100.944 176.303,80.278 176.303,80.278 C176.303,80.278 170.59799999999998,80.278 170.59799999999998,80.278 C170.59799999999998,80.278 170.59799999999998,77.468 170.59799999999998,77.468 C170.59799999999998,77.468 176.303,77.468 176.303,77.468 C176.303,77.468 176.303,69.528 176.303,69.528 C176.303,69.528 179.742,69.528 179.742,69.528z" style="fill: rgb(0, 0, 0); fill-opacity: 1;"></path><path d=" M193.185,106.477 C193.185,105.827 193.395,105.277 193.816,104.828 C194.23600000000002,104.379 194.809,104.154 195.536,104.154 C196.26100000000002,104.154 196.839,104.379 197.269,104.828 C197.70000000000002,105.277 197.91500000000002,105.827 197.91500000000002,106.477 C197.91500000000002,107.107 197.70000000000002,107.637 197.269,108.06700000000001 C196.839,108.497 196.26100000000002,108.712 195.536,108.712 C194.809,108.712 194.23600000000002,108.497 193.816,108.06700000000001 C193.395,107.637 193.185,107.107 193.185,106.477z M196.94,96.873 C196.94,96.873 193.758,96.873 193.758,96.873 C193.758,96.873 193.586,66.748 193.586,66.748 C193.586,66.748 197.14000000000001,66.748 197.14000000000001,66.748 C197.14000000000001,66.748 196.94,96.873 196.94,96.873z" style="fill: rgb(0, 0, 0); fill-opacity: 1;"></path></g></g></g></svg>