<svg xmlns="http://www.w3.org/2000/svg" width="1080" height="1080" viewBox="0 0 1080 1080" preserveAspectRatio="xMidYMid meet"><defs><clipPath id="animationMask_SIYw90A7s8"><rect width="1080" height="1080" x="0" y="0"></rect></clipPath><clipPath id="iIvrgnzYot"></clipPath></defs><g clip-path="url(#animationMask_SIYw90A7s8)"><g opacity="1" style="-webkit-user-select: none;"><g transform="matrix(0.9114,0,0,0.9114,284.600052,239.47661839999995)" style="-webkit-user-select: none;"><path d=" M1.0649999999999977,34.793000000000006 C1.0649999999999977,34.793000000000006 1.0649999999999977,96.194 1.0649999999999977,96.194 C1.0649999999999977,115.272 0.7019999999999982,134.236 3.9140000000000015,153.107 C7.582999999999998,174.676 14.931000000000012,195.46 25.034000000000006,214.844 C45.724000000000004,254.524 78.351,286.554 119.181,305.079 C160.012,286.554 192.641,254.524 213.33499999999998,214.844 C223.44099999999997,195.46 230.37900000000002,174.676 234.048,153.107 C237.257,134.236 236.511,115.272 236.511,96.194 C236.511,96.194 236.511,34.793000000000006 236.511,34.793000000000006 C236.511,34.793000000000006 118.788,1.0109999999999957 118.788,1.0109999999999957 C118.788,1.0109999999999957 1.0649999999999977,34.793000000000006 1.0649999999999977,34.793000000000006z" style="fill: rgb(66, 133, 244); fill-opacity: 1;"></path><path d=" M195.758,143.895 C195.758,186.148 161.511,220.401 119.25500000000001,220.401 C77.00800000000001,220.401 42.763000000000005,186.148 42.763000000000005,143.895 C42.763000000000005,101.64500000000001 77.00800000000001,67.397 119.25500000000001,67.397 C161.511,67.397 195.758,101.64500000000001 195.758,143.895z" style="fill: rgb(58, 115, 212); fill-opacity: 1;"></path><path d=" M89.19399999999999,116.001 C89.19399999999999,99.177 102.843,85.528 119.66799999999999,85.528 C136.483,85.528 150.141,99.177 150.141,116.001 C150.141,132.846 136.483,146.479 119.66799999999999,146.479 C102.843,146.479 89.19399999999999,132.846 89.19399999999999,116.001z M118.788,160.373 C87.232,160.953 59.07299999999999,173.91400000000002 59.07299999999999,189.842 C59.07299999999999,189.842 59.07299999999999,191.188 59.07299999999999,191.188 C59.07299999999999,191.188 79.5,220.34199999999998 118.788,220.297 C159,220.25099999999998 178.503,192.125 178.503,192.125 C178.503,192.125 178.503,189.842 178.503,189.842 C178.503,173.91400000000002 150.345,160.953 118.788,160.373z" style="fill: rgb(255, 255, 255); fill-opacity: 1;"></path></g><g transform="matrix(0.93,0,0,0.93,423.75,831.83)" style="-webkit-user-select: none;"><path d=" M-7516,-7521 C-7516,-7521 6884,-7521 6884,-7521 C6884,-7521 6884,6879 6884,6879 C6884,6879 -7516,6879 -7516,6879 C-7516,6879 -7516,-7521 -7516,-7521z M-7516,6879 C-7516,6879 6884,6879 6884,6879 C6884,6879 6884,-7521 6884,-7521 C6884,-7521 -7516,-7521 -7516,-7521 C-7516,-7521 -7516,6879 -7516,6879z M291.08299999999997,15.658999999999999 C291.08299999999997,23.88 225.97899999999998,30.541 145.678,30.541 C65.37999999999998,30.541 0.2809999999999775,23.88 0.2809999999999775,15.658999999999999 C0.2809999999999775,7.441999999999998 65.37999999999998,0.7809999999999988 145.678,0.7809999999999988 C225.97899999999998,0.7809999999999988 291.08299999999997,7.441999999999998 291.08299999999997,15.658999999999999z" style="fill: rgb(238, 238, 238); fill-opacity: 1;"></path></g><g transform="matrix(0.9292284761884706,0.03787398896938284,-0.03787398896938284,0.9292284761884706,436.677673883716,438.22915623565706)" style="-webkit-user-select: none;"><path d=" M37.877,51.304 C37.877,51.304 26.364,56.424 26.364,56.424 C26.364,56.424 6.058999999999999,12.015 6.058999999999999,12.015 C6.058999999999999,12.015 17.575,6.890000000000001 17.575,6.890000000000001 C17.575,6.890000000000001 37.877,51.304 37.877,51.304z" style="fill: rgb(68, 69, 69); fill-opacity: 1;"></path><path d=" M-7547,-7086 C-7547,-7086 6853,-7086 6853,-7086 C6853,-7086 6853,7314 6853,7314 C6853,7314 -7547,7314 -7547,7314 C-7547,7314 -7547,-7086 -7547,-7086z M-7547,7314 C-7547,7314 6853,7314 6853,7314 C6853,7314 6853,-7086 6853,-7086 C6853,-7086 -7547,-7086 -7547,-7086 C-7547,-7086 -7547,7314 -7547,7314z M26.366,61.543000000000006 C24.424,61.543000000000006 22.567,60.433 21.708,58.553 C21.708,58.553 1.404,14.144000000000002 1.404,14.144000000000002 C0.838000000000001,12.902000000000001 0.7880000000000003,11.482 1.2710000000000008,10.204 C1.7540000000000013,8.926000000000002 2.7310000000000016,7.895000000000003 3.9770000000000003,7.339000000000002 C3.9770000000000003,7.339000000000002 15.493,2.214000000000002 15.493,2.214000000000002 C18.055,1.0750000000000028 21.065,2.208000000000002 22.231,4.7620000000000005 C22.231,4.7620000000000005 42.531,49.176 42.531,49.176 C43.096999999999994,50.42 43.147999999999996,51.839 42.664,53.115 C42.178,54.395 41.205,55.42400000000001 39.955,55.981 C39.955,55.981 28.442,61.101 28.442,61.101 C27.766,61.402 27.058999999999997,61.543000000000006 26.366,61.543000000000006z M12.864,14.589000000000002 C12.864,14.589000000000002 28.912,49.69 28.912,49.69 C28.912,49.69 31.072,48.728 31.072,48.728 C31.072,48.728 15.027000000000001,13.626000000000001 15.027000000000001,13.626000000000001 C15.027000000000001,13.626000000000001 12.864,14.589000000000002 12.864,14.589000000000002z" style="fill: rgb(68, 69, 69); fill-opacity: 1;"></path></g><g transform="matrix(0.8859060620770588,-0.2829672227928856,0.2829672227928856,0.8859060620770588,437.2301044832926,490.7514120497624)" style="-webkit-user-select: none;"><path d=" M-7549,-7130 C-7549,-7130 6851,-7130 6851,-7130 C6851,-7130 6851,7270 6851,7270 C6851,7270 -7549,7270 -7549,7270 C-7549,7270 -7549,-7130 -7549,-7130z M-7549,7270 C-7549,7270 6851,7270 6851,7270 C6851,7270 6851,-7130 6851,-7130 C6851,-7130 -7549,-7130 -7549,-7130 C-7549,-7130 -7549,7270 -7549,7270z M5.6960000000000015,3.960000000000001 C9.998000000000001,0.9510000000000005 15.936000000000002,2.0190000000000055 18.948,6.3160000000000025 C18.948,6.3160000000000025 50.544,65.571 50.544,65.571 C54.679,71.469 53.238,79.58600000000001 47.326,83.715 C41.408,87.82300000000001 32.003,85.714 28.565,79.393 C20.383000000000003,64.38900000000001 3.339000000000002,17.186 3.339000000000002,17.186 C0.3400000000000034,12.887 1.3840000000000003,6.959000000000003 5.6960000000000015,3.960000000000001z" style="fill: rgb(241, 177, 59); fill-opacity: 1;"></path></g><g transform="matrix(0.9072042846041318,-0.20464697895621484,0.20464697895621484,0.9072042846041318,466.1782950921157,484.65817493833396)" style="-webkit-user-select: none;"><path d=" M-7576,-7133 C-7576,-7133 6824,-7133 6824,-7133 C6824,-7133 6824,7267 6824,7267 C6824,7267 -7576,7267 -7576,7267 C-7576,7267 -7576,-7133 -7576,-7133z M-7576,7267 C-7576,7267 6824,7267 6824,7267 C6824,7267 6824,-7133 6824,-7133 C6824,-7133 -7576,-7133 -7576,-7133 C-7576,-7133 -7576,7267 -7576,7267z M6.143000000000001,79.925 C1.2379999999999995,76.293 1.0579999999999998,70.201 4.6839999999999975,65.29599999999999 C4.6839999999999975,65.29599999999999 58.413,8.564 58.413,8.564 C63.405,1.8290000000000006 72.899,0.4170000000000016 79.64,5.399000000000001 C86.37100000000001,10.393 87.78399999999999,19.891 82.799,26.621000000000002 C82.799,26.621000000000002 34.867,68.576 23.104,78.199 C18.383,82.065 11.055,83.564 6.143000000000001,79.925z" style="fill: rgb(241, 177, 59); fill-opacity: 1;"></path></g><g transform="matrix(0.9290536427497942,-0.04194435472549034,0.04194435472549034,0.9290536427497942,526.3382627696288,416.50523681576936)" style="-webkit-user-select: none;"><path d=" M-7642,-7075 C-7642,-7075 6758,-7075 6758,-7075 C6758,-7075 6758,7325 6758,7325 C6758,7325 -7642,7325 -7642,7325 C-7642,7325 -7642,-7075 -7642,-7075z M-7642,7325 C-7642,7325 6758,7325 6758,7325 C6758,7325 6758,-7075 6758,-7075 C6758,-7075 -7642,-7075 -7642,-7075 C-7642,-7075 -7642,7325 -7642,7325z M1.0449999999999982,72.11699999999999 C1.0449999999999982,72.969 1.2979999999999983,60.449 1.2979999999999983,60.449 C1.2979999999999983,60.449 1.2979999999999983,17.114 1.2979999999999983,17.114 C1.2979999999999983,8.073 8.626,0.7389999999999972 17.669999999999998,0.7389999999999972 C26.71,0.7389999999999972 34.041,8.073 34.041,17.114 C34.041,17.114 34.041,60.449 34.041,60.449 C34.041,60.449 1.4709999999999965,72.538 1.0449999999999982,72.11699999999999z" style="fill: rgb(241, 177, 59); fill-opacity: 1;"></path></g><g transform="matrix(0.9264056823241983,-0.08168544397526764,0.08168544397526764,0.9264056823241983,119.03888667725676,567.176511238442)" style="-webkit-user-select: none;"><path d=" M473.5,-237.566658925 C487.3342890607075,-237.566658925 498.566658925,-226.3342890607075 498.566658925,-212.5 C498.566658925,-198.6657109392925 487.3342890607075,-187.433341075 473.5,-187.433341075 C459.6657109392925,-187.433341075 448.433341075,-198.6657109392925 448.433341075,-212.5 C448.433341075,-226.3342890607075 459.6657109392925,-237.566658925 473.5,-237.566658925z M473.5,-237.566658925 C487.3342890607075,-237.566658925 498.566658925,-226.3342890607075 498.566658925,-212.5 C498.566658925,-198.6657109392925 487.3342890607075,-187.433341075 473.5,-187.433341075 C459.6657109392925,-187.433341075 448.433341075,-198.6657109392925 448.433341075,-212.5 C448.433341075,-226.3342890607075 459.6657109392925,-237.566658925 473.5,-237.566658925z" style="fill: rgb(68, 69, 69); fill-opacity: 1;"></path><g style="stroke-linecap: butt; stroke-linejoin: miter; fill-opacity: 0; stroke-miterlimit: 4; stroke: rgb(255, 255, 255); stroke-opacity: 1; stroke-width: 0;"><path d=" M473.5,-237.566658925 C487.3342890607075,-237.566658925 498.566658925,-226.3342890607075 498.566658925,-212.5 C498.566658925,-198.6657109392925 487.3342890607075,-187.433341075 473.5,-187.433341075 C459.6657109392925,-187.433341075 448.433341075,-198.6657109392925 448.433341075,-212.5 C448.433341075,-226.3342890607075 459.6657109392925,-237.566658925 473.5,-237.566658925z"></path><path d=" M473.5,-237.566658925 C487.3342890607075,-237.566658925 498.566658925,-226.3342890607075 498.566658925,-212.5 C498.566658925,-198.6657109392925 487.3342890607075,-187.433341075 473.5,-187.433341075 C459.6657109392925,-187.433341075 448.433341075,-198.6657109392925 448.433341075,-212.5 C448.433341075,-226.3342890607075 459.6657109392925,-237.566658925 473.5,-237.566658925z"></path></g></g><g transform="matrix(0.926113420681076,-0.08493486936703896,0.08493486936703896,0.926113420681076,390.69288259439486,270.1537795019948)" opacity="1" style="-webkit-user-select: none;"><g style="-webkit-user-select: none;"><path d=" M-7511,-6904 C-7511,-6904 6889,-6904 6889,-6904 C6889,-6904 6889,7496 6889,7496 C6889,7496 -7511,7496 -7511,7496 C-7511,7496 -7511,-6904 -7511,-6904z M-7511,7496 C-7511,7496 6889,7496 6889,7496 C6889,7496 6889,-6904 6889,-6904 C6889,-6904 -7511,-6904 -7511,-6904 C-7511,-6904 -7511,7496 -7511,7496z M188.97299999999998,154.354 C192.779,172.085 187.327,189.637 175.884,201.988 C168.66,209.781 159.059,215.50400000000002 147.879,217.89800000000002 C118.975,224.09300000000002 90.52699999999999,205.68800000000002 84.333,176.794 C84.333,176.794 80.69699999999999,160.574 80.69699999999999,160.574 C74.50299999999999,131.681 92.90699999999998,103.227 121.794,97.03500000000001 C150.70499999999998,90.84100000000001 179.149,109.23800000000001 185.341,138.139 C185.341,138.139 188.97299999999998,154.354 188.97299999999998,154.354z" style="fill: rgb(241, 177, 59); fill-opacity: 1;"></path><path d=" M175.52,152.05399999999997 C179.315,169.779 173.871,187.32999999999998 162.428,199.68599999999998 C155.203,207.474 145.603,213.195 134.423,215.59099999999998 C130.87,216.35299999999998 128.741,217.313 127.802,218.35299999999998 C139.719,221.64499999999998 187.13,217.144 190.537,165.813 C190.537,165.813 183.148,130.76799999999997 183.148,130.76799999999997 C171.142,98.96199999999999 133.91400000000002,99.80199999999999 137.072,109.535 C137.51600000000002,110.90499999999999 165.693,106.93699999999998 171.885,135.839 C171.885,135.839 175.52,152.05399999999997 175.52,152.05399999999997z" style="fill: rgb(237, 161, 41); fill-opacity: 1;"></path><path d=" M135.043,128.532 C146.839,157.373 179.019,163.40200000000002 179.019,163.40200000000002 C179.019,163.40200000000002 155.917,148.433 148.885,125.772 C144.233,110.779 130.051,116.316 135.043,128.532z" style="fill: rgb(68, 69, 69); fill-opacity: 1;"></path><path d=" M153.474,98.07000000000001 C148.584,126.78800000000001 126.736,151.02200000000002 96.502,157.5 C90.734,158.73700000000002 85.231,159.13600000000002 79.58099999999999,159.002 C74.125,122.00200000000001 104.928,83.61800000000001 153.474,98.07000000000001z" style="fill: rgb(68, 69, 69); fill-opacity: 1;"></path><path d=" M189.078,152.546 C188.762,152.655 187.882,153.273 187.385,152.91 C183.441,152.887 181.671,152.431 177.856,151.781 C149.412,146.946 125.892,127.19200000000001 119.48,97.26 C151.65,87.361 187.827,112.64600000000002 189.078,152.546z" style="fill: rgb(68, 69, 69); fill-opacity: 1;"></path><path d=" M-7511,-6904 C-7511,-6904 6889,-6904 6889,-6904 C6889,-6904 6889,7496 6889,7496 C6889,7496 -7511,7496 -7511,7496 C-7511,7496 -7511,-6904 -7511,-6904z M-7511,7496 C-7511,7496 6889,7496 6889,7496 C6889,7496 6889,-6904 6889,-6904 C6889,-6904 -7511,-6904 -7511,-6904 C-7511,-6904 -7511,7496 -7511,7496z M199.76299999999998,153.362 C201.11599999999999,159.369 197.344,165.328 191.332,166.677 C185.33399999999997,168.025 179.37599999999998,164.25199999999998 178.023,158.24699999999999 C176.677,152.249 180.44799999999998,146.291 186.44899999999998,144.941 C192.457,143.59199999999998 198.41,147.36599999999999 199.76299999999998,153.362z" style="fill: rgb(237, 161, 41); fill-opacity: 1;"></path></g></g><g transform="matrix(0.8832710052928222,-0.2910881845918988,0.2910881845918988,0.8832710052928222,190.24450804843502,683.7615157133155)" style="-webkit-user-select: none;"><g style="stroke-linecap: round; stroke-linejoin: miter; fill-opacity: 0; stroke-miterlimit: 4; stroke: rgb(240, 92, 91); stroke-opacity: 1; stroke-width: 3;"><path d=" M412.25,-142.375 C412.25,-142.375 416.75,-138.375 423.25,-138.375 C429.755,-138.375 434.625,-142.5 434.5,-142.5"></path></g></g><g transform="matrix(0.14616066898364852,-0.05216047930245979,0,0,511.69229729957783,441.467124055412)" style="-webkit-user-select: none;"><path d=" M78.171,1.0049999999999955 C154.812,1.7479999999999976 154.4,40.068999999999996 154.4,40.068999999999996 C154.4,40.068999999999996 153.532,130.212 76.87,129.47 C0.25,128.664 1.1170000000000044,38.55 1.1170000000000044,38.55 C1.1170000000000044,38.55 1.490000000000009,0.25 78.171,1.0049999999999955z" style="fill: rgb(240, 92, 91); fill-opacity: 1;"></path><path d=" M154.4,40.069 C154.171,64.658 119.686,105.45700000000001 77.367,105.034 C35.00600000000001,104.601 0.8700000000000045,63.18000000000001 1.1170000000000044,38.551 C1.1170000000000044,38.551 154.4,40.069 154.4,40.069z" style="fill: rgb(49, 43, 44); fill-opacity: 1;"></path></g><g transform="matrix(0.7742261661347803,-0.2926792334147393,0.3617383783777676,0.9569087446609648,228.5256019332595,653.3167456386255)" style="-webkit-user-select: none;"><path d=" M404.028,-127.682 C406.499,-127.682 408.502,-125.679 408.502,-123.208 C408.502,-120.737 406.499,-118.734 404.028,-118.734 C401.557,-118.734 399.55400000000003,-120.737 399.55400000000003,-123.208 C399.55400000000003,-125.679 401.557,-127.682 404.028,-127.682z" style="fill: rgb(68, 69, 69); fill-opacity: 1;"></path><g style="stroke-linecap: butt; stroke-linejoin: miter; fill-opacity: 0; stroke-miterlimit: 4; stroke: rgb(255, 255, 255); stroke-opacity: 1; stroke-width: 0;"><path d=" M404.028,-127.682 C406.499,-127.682 408.502,-125.679 408.502,-123.208 C408.502,-120.737 406.499,-118.734 404.028,-118.734 C401.557,-118.734 399.55400000000003,-120.737 399.55400000000003,-123.208 C399.55400000000003,-125.679 401.557,-127.682 404.028,-127.682z"></path></g></g><g transform="matrix(0.7742261661347803,-0.2926792334147393,0.3617383783777676,0.9569087446609648,261.5016412665818,641.6155854448242)" style="-webkit-user-select: none;"><path d=" M404.028,-127.682 C406.499,-127.682 408.502,-125.679 408.502,-123.208 C408.502,-120.737 406.499,-118.734 404.028,-118.734 C401.557,-118.734 399.55400000000003,-120.737 399.55400000000003,-123.208 C399.55400000000003,-125.679 401.557,-127.682 404.028,-127.682z" style="fill: rgb(68, 69, 69); fill-opacity: 1;"></path><g style="stroke-linecap: butt; stroke-linejoin: miter; fill-opacity: 0; stroke-miterlimit: 4; stroke: rgb(255, 255, 255); stroke-opacity: 1; stroke-width: 0;"><path d=" M404.028,-127.682 C406.499,-127.682 408.502,-125.679 408.502,-123.208 C408.502,-120.737 406.499,-118.734 404.028,-118.734 C401.557,-118.734 399.55400000000003,-120.737 399.55400000000003,-123.208 C399.55400000000003,-125.679 401.557,-127.682 404.028,-127.682z"></path></g></g><g transform="matrix(0.93,0,0,0.93,471.17999999999995,811.37)" style="-webkit-user-select: none;"><path d=" M-7567,-7499 C-7567,-7499 6833,-7499 6833,-7499 C6833,-7499 6833,6901 6833,6901 C6833,6901 -7567,6901 -7567,6901 C-7567,6901 -7567,-7499 -7567,-7499z M-7567,6901 C-7567,6901 6833,6901 6833,6901 C6833,6901 6833,-7499 6833,-7499 C6833,-7499 -7567,-7499 -7567,-7499 C-7567,-7499 -7567,6901 -7567,6901z M63.955,0.2660000000000018 C63.955,0.2660000000000018 63.955,35.334 63.955,35.334 C63.955,35.334 8.564999999999998,35.334 8.564999999999998,35.334 C8.564999999999998,35.334 1.100999999999999,21.444000000000003 15.323999999999998,21.444000000000003 C37.143,21.444000000000003 39.489,0.2660000000000018 39.489,0.2660000000000018 C39.489,0.2660000000000018 63.955,0.2660000000000018 63.955,0.2660000000000018z" style="fill: rgb(240, 91, 91); fill-opacity: 1;"></path></g><g transform="matrix(0.93,0,0,0.93,470.25,830.9)" style="-webkit-user-select: none;"><path d=" M0.968,16.319 C0.968,16.319 64.954,16.319 64.954,16.319 C64.954,16.319 64.954,11.141 64.954,11.141 C64.954,11.141 0.968,11.141 0.968,11.141 C0.968,11.141 0.968,16.319 0.968,16.319z" style="fill: rgb(83, 191, 179); fill-opacity: 1;"></path><path d=" M-7566,-7520 C-7566,-7520 6834,-7520 6834,-7520 C6834,-7520 6834,6880 6834,6880 C6834,6880 -7566,6880 -7566,6880 C-7566,6880 -7566,-7520 -7566,-7520z M-7566,6880 C-7566,6880 6834,6880 6834,6880 C6834,6880 6834,-7520 6834,-7520 C6834,-7520 -7566,-7520 -7566,-7520 C-7566,-7520 -7566,6880 -7566,6880z M29.74,11.524000000000001 C29.74,5.309 23.302,0.28199999999999914 15.350999999999999,0.28199999999999914 C7.412999999999999,0.28199999999999914 0.968,5.309 0.968,11.524000000000001 C0.968,11.524000000000001 29.74,11.524000000000001 29.74,11.524000000000001z" style="fill: rgb(83, 191, 179); fill-opacity: 1;"></path></g><g transform="matrix(0.9286179551280588,-0.05068227909025594,0.05068227909025594,0.9286179551280588,493.09013467047794,578.035575851088)" style="-webkit-user-select: none;"><path d=" M32.333,0.5739999999999981 C16.532,0.5739999999999981 6.015000000000001,11.307999999999993 6.834,44.04299999999999 C7.274000000000001,61.619 1.1090000000000018,253.13799999999998 1.1090000000000018,253.13799999999998 C1.1090000000000018,253.13799999999998 28.854,253.07799999999997 28.854,253.07799999999997 C33.44,209.535 41.197,193.814 47.295,151.374 C54.459,101.565 74.463,0.5739999999999981 74.463,0.5739999999999981 C74.463,0.5739999999999981 32.333,0.5739999999999981 32.333,0.5739999999999981z" style="fill: rgb(66, 66, 66); fill-opacity: 1;"></path></g><g transform="matrix(0.93,0,0,0.93,606.03,811.37)" style="-webkit-user-select: none;"><path d=" M-7712,-7499 C-7712,-7499 6688,-7499 6688,-7499 C6688,-7499 6688,6901 6688,6901 C6688,6901 -7712,6901 -7712,6901 C-7712,6901 -7712,-7499 -7712,-7499z M-7712,6901 C-7712,6901 6688,6901 6688,6901 C6688,6901 6688,-7499 6688,-7499 C6688,-7499 -7712,-7499 -7712,-7499 C-7712,-7499 -7712,6901 -7712,6901z M1.0990000000000002,0.8189999999999991 C1.0990000000000002,0.8189999999999991 4.1080000000000005,35.333 4.1080000000000005,35.333 C4.1080000000000005,35.333 39.346999999999994,35.333 39.346999999999994,35.333 C39.346999999999994,35.333 40.563,23.65 36.704,23.65 C27.887,23.65 24.601,1.1069999999999993 24.601,1.1069999999999993 C24.601,1.1069999999999993 1.0990000000000002,0.8189999999999991 1.0990000000000002,0.8189999999999991z" style="fill: rgb(240, 91, 91); fill-opacity: 1;"></path></g><g transform="matrix(0.93,0,0,0.93,608.8199999999999,830.9)" style="-webkit-user-select: none;"><path d=" M1.1280000000000001,16.319 C1.1280000000000001,16.319 41.198,16.319 41.198,16.319 C41.198,16.319 41.198,11.141 41.198,11.141 C41.198,11.141 1.1280000000000001,11.141 1.1280000000000001,11.141 C1.1280000000000001,11.141 1.1280000000000001,16.319 1.1280000000000001,16.319z" style="fill: rgb(83, 191, 179); fill-opacity: 1;"></path><path d=" M-7714.999,-7519.999 C-7714.999,-7519.999 6685.001,-7519.999 6685.001,-7519.999 C6685.001,-7519.999 6685.001,6880.001 6685.001,6880.001 C6685.001,6880.001 -7714.999,6880.001 -7714.999,6880.001 C-7714.999,6880.001 -7714.999,-7519.999 -7714.999,-7519.999z M-7714.999,6880.001 C-7714.999,6880.001 6685.001,6880.001 6685.001,6880.001 C6685.001,6880.001 6685.001,-7519.999 6685.001,-7519.999 C6685.001,-7519.999 -7714.999,-7519.999 -7714.999,-7519.999 C-7714.999,-7519.999 -7714.999,6880.001 -7714.999,6880.001z M41.199,11.850999999999999 C41.199,5.643 34.124,0.6149999999999993 25.401,0.6149999999999993 C16.67,0.6149999999999993 9.599,5.643 9.599,11.850999999999999 C9.599,11.850999999999999 41.199,11.850999999999999 41.199,11.850999999999999z" style="fill: rgb(83, 191, 179); fill-opacity: 1;"></path></g><g transform="matrix(0.9287950008563319,-0.047327015374800586,0.047327015374800586,0.9287950008563319,522.6202830600212,581.359517099178)" style="-webkit-user-select: none;"><path d=" M47.092999999999996,112.878 C61.001,109.001 70.001,118 75.765,138.53300000000002 C84.007,167.893 86.898,189.613 105.994,255.707 C105.994,255.707 78.142,259.88 78.142,259.88 C50.650999999999996,187.232 48.302,184.551 37.074,146.28900000000002 C32.001,129 32.812,116.86 47.092999999999996,112.878z" style="fill: rgb(117, 117, 117); fill-opacity: 1;"></path></g><g transform="matrix(0.9299681754776224,0.007693672648494855,-0.007693672648494855,0.9299681754776224,530.5220944139459,578.1506369439587)" style="-webkit-user-select: none;"><path d=" M29.834999999999997,2.573999999999998 C45.165,-0.5 63.001,2.0010000000000048 67.593,31.378 C71.658,57.385000000000005 74.41,113.504 75.288,133.381 C76,149.5 73.001,156.5 61.227999999999994,159.484 C49.693999999999996,162.40800000000002 39.95,154.30700000000002 35.074,138.78900000000002 C17.842999999999996,83.923 11.54,53.397999999999996 8.269999999999996,37.824 C4.999999999999993,22.25 12.893999999999998,5.971000000000004 29.834999999999997,2.573999999999998z" style="fill: rgb(117, 117, 117); fill-opacity: 1;"></path></g><g transform="matrix(0.9299954106377281,0.0029216763618679846,-0.0029216763618679846,0.9299954106377281,-5325.353210594009,6643.780809577779)" style="-webkit-user-select: none;"><path d=" M6301.83,-6540.564 C6301.83,-6540.564 6264.541,-6540.564 6264.541,-6540.564 C6256.004,-6540.564 6248.782,-6546.875 6247.633,-6555.335 C6247.633,-6555.335 6240.9490000000005,-6604.64 6240.9490000000005,-6604.64 C6240.309,-6609.358 6241.673,-6614.128 6244.705,-6617.798 C6244.705,-6617.798 6273.901,-6653.141 6273.901,-6653.141 C6277.14,-6657.066 6281.967000000001,-6659.337 6287.055,-6659.337 C6287.055,-6659.337 6303.143,-6659.337 6303.143,-6659.337 C6307.715,-6659.337 6312.092000000001,-6657.502 6315.298,-6654.247 C6318.5070000000005,-6650.988 6320.274,-6646.582 6320.201,-6642.011 C6320.201,-6642.011 6318.888,-6557.361 6318.888,-6557.361 C6318.745,-6548.044 6311.151,-6540.564 6301.83,-6540.564z" style="fill: rgb(234, 67, 53); fill-opacity: 1;"></path></g><g transform="matrix(0.8859060620770588,-0.2829672227928856,0.2829672227928856,0.8859060620770588,436.68988706418065,490.11461961616465)" style="-webkit-user-select: none;"><path d=" M-7549,-7130 C-7549,-7130 6851,-7130 6851,-7130 C6851,-7130 6851,7270 6851,7270 C6851,7270 -7549,7270 -7549,7270 C-7549,7270 -7549,-7130 -7549,-7130z M-7549,7270 C-7549,7270 6851,7270 6851,7270 C6851,7270 6851,-7130 6851,-7130 C6851,-7130 -7549,-7130 -7549,-7130 C-7549,-7130 -7549,7270 -7549,7270z M5.6960000000000015,3.960000000000001 C9.998000000000001,0.9510000000000005 15.936000000000002,2.0190000000000055 18.948,6.3160000000000025 C18.948,6.3160000000000025 50.544,65.571 50.544,65.571 C54.679,71.469 53.238,79.58600000000001 47.326,83.715 C41.408,87.82300000000001 32.003,85.714 28.565,79.393 C20.383000000000003,64.38900000000001 3.339000000000002,17.186 3.339000000000002,17.186 C0.3400000000000034,12.887 1.3840000000000003,6.959000000000003 5.6960000000000015,3.960000000000001z" style="fill: rgb(241, 177, 59); fill-opacity: 0;"></path></g><g transform="matrix(0.9299954106377281,0.0029216763618679846,-0.0029216763618679846,0.9299954106377281,-5288.205131602422,6645.860753781968)" style="-webkit-user-select: none;"><path d=" M6295.371999999999,-6557.382 C6295.371999999999,-6557.382 6290.253,-6557.382 6290.253,-6557.382 C6290.253,-6557.382 6290.253,-6640.112 6290.253,-6640.112 C6290.253,-6647.72 6284.065,-6653.911 6276.458,-6653.911 C6268.851,-6653.911 6262.663,-6647.72 6262.663,-6640.112 C6262.663,-6640.112 6262.663,-6557.382 6262.663,-6557.382 C6262.663,-6557.382 6257.544,-6557.382 6257.544,-6557.382 C6257.544,-6557.382 6257.544,-6640.112 6257.544,-6640.112 C6257.544,-6650.542 6266.027999999999,-6659.0289999999995 6276.458,-6659.0289999999995 C6286.888,-6659.0289999999995 6295.371999999999,-6650.542 6295.371999999999,-6640.112 C6295.371999999999,-6640.112 6295.371999999999,-6557.382 6295.371999999999,-6557.382z" style="fill: rgb(0, 105, 92); fill-opacity: 1;"></path></g><g transform="matrix(0.9299954106377281,0.0029216763618679846,-0.0029216763618679846,0.9299954106377281,-5293.178577601284,6645.791188922968)" style="-webkit-user-select: none;"><path d=" M6318.418,-6483.062 C6318.418,-6483.062 6240.663,-6483.062 6240.663,-6483.062 C6240.663,-6483.062 6240.663,-6605.38 6240.663,-6605.38 C6240.663,-6605.38 6318.418,-6605.383 6318.418,-6605.383 C6318.418,-6605.383 6318.418,-6483.062 6318.418,-6483.062z" style="fill: rgb(0, 105, 92); fill-opacity: 1;"></path></g><g transform="matrix(-0.7568728536811588,0.5404104767309191,-0.5404104767309191,-0.7568728536811588,515.1267611416905,509.53012480270723)" style="-webkit-user-select: none;"><path d=" M22.467,2.745000000000001 C23.436,4.368 27.04,14.638000000000002 32.468,27.093000000000004 C33.547000000000004,29.568 26.755000000000003,32.088 20.399,32.370000000000005 C13.84,32.661 11.605,31.322000000000003 10.579,30.628 C9.862,30.154000000000003 8.743,30.504 9.259,31.651000000000003 C9.975000000000001,33.24 13.693,37.719 12.947000000000001,39.158 C12.056000000000001,40.876000000000005 9.788,40.818 7.8660000000000005,38.74 C5.677000000000001,36.373000000000005 2.907000000000002,31.548000000000002 5.043000000000001,25.525000000000002 C8.353000000000002,16.194000000000003 5.42,8.503000000000002 5.541,4.584000000000001 C5.662000000000001,0.6650000000000027 10.23,-1.266999999999996 14.409,-1.6199999999999974 C19.903,-2.083999999999996 21.498,1.1219999999999999 22.467,2.745000000000001z" style="fill: rgb(241, 177, 59); fill-opacity: 1;"></path><path d=" M14.495000000000001,27.175 C14.495000000000001,27.175 7.688000000000001,26.122 8.627,28.732 C9.601,31.442 13.112,39.687 13.905000000000001,41.295 C15.522,44.574 17.227,46.812 20.389000000000003,49.776 C23.054000000000002,52.274 25.227,49.535000000000004 23.928,47.549 C22.22,44.937 20.402,41.94 19.234,39.337 C17.725,35.975 14.495000000000001,27.175 14.495000000000001,27.175z" style="fill: rgb(241, 177, 59); fill-opacity: 1;"></path><path d=" M19.779,26.340000000000003 C19.779,26.340000000000003 14.411999999999999,27.225 15.414,29.76 C15.511999999999999,30.321 16.118,31.796 16.651,33.081 C17.569,35.293 18.235,36.589 19.453,37.331 C20.851,38.183 22.198,37.446 23.365,35.953 C24.729,34.209 22.947,31.492 22.374,29.758000000000003 C21.858999999999998,28.200000000000003 19.779,26.340000000000003 19.779,26.340000000000003z" style="fill: rgb(241, 177, 59); fill-opacity: 1;"></path><path d=" M26.185,23.473000000000003 C26.185,23.473000000000003 19.695,24.566000000000003 20.866999999999997,26.905 C21.433999999999997,28.038000000000004 22.387999999999998,30.311000000000003 22.718,31.187000000000005 C23.403,32.397000000000006 24.038999999999998,34.134 24.807,35.162000000000006 C25.884999999999998,36.605000000000004 28.641,34.467000000000006 28.656999999999996,32.226000000000006 C28.665,31.114000000000004 28.024,28.829 27.418999999999997,27.264000000000003 C26.942,26.029000000000003 26.185,23.473000000000003 26.185,23.473000000000003z" style="fill: rgb(241, 177, 59); fill-opacity: 1;"></path><path d=" M28.832,18.972 C28.832,18.972 22.944,22.192000000000004 24.117,24.065000000000005 C24.601,24.813000000000002 25.496,26.043000000000003 26.233999999999998,26.896 C26.993,27.773000000000003 27.996,29.771 29.456,31.380000000000003 C30.311,32.322 32.335,31.588 32.8,29.752000000000002 C33.094,28.590000000000003 33.063,27.426000000000002 32.582,26.299000000000003 C31.575,23.942 28.832,18.972 28.832,18.972z" style="fill: rgb(241, 177, 59); fill-opacity: 1;"></path></g><g transform="matrix(-0.4771893989767502,0.7982419918196535,-0.7982419918196535,-0.4771893989767502,567.4841510941161,538.2266153274362)" style="-webkit-user-select: none;"><path d=" M12.231,83.207 C6.486999999999998,81.99000000000001 4.184000000000001,77.62 5.960000000000001,71.044 C8.269000000000002,62.492999999999995 19.069,21.717 21.967,13.020999999999997 C24.063,6.731999999999999 29.365000000000002,1.9199999999999946 36.797,3.823999999999998 C43.772000000000006,5.609999999999999 47.073,11.620999999999995 45.141000000000005,18.551999999999996 C40.55500000000001,35.016999999999996 22.773,75.45599999999999 22.773,75.45599999999999 C21.035,80.406 18.719,84.582 12.231,83.207z" style="fill: rgb(241, 177, 59); fill-opacity: 1;"></path></g><g transform="matrix(0.6839547059004337,0.6301634393366939,-0.6301634393366939,0.6839547059004337,562.6891681790484,467.5657442432502)" style="-webkit-user-select: none;"><path d=" M53.602000000000004,98.91300000000001 C48.431,102.167 41.343,100.54400000000001 38.094,95.382 C38.094,95.382 4.870999999999999,24.656000000000002 4.870999999999999,24.656000000000002 C0.4190000000000005,17.555 2.5650000000000013,8.206000000000003 9.663,3.7439999999999998 C16.767,-0.7040000000000006 26.124,1.4420000000000002 30.57,8.539000000000001 C30.57,8.539000000000001 53.291,67.358 57.956,81.824 C59.835,87.63300000000001 58.78,95.66900000000001 53.602000000000004,98.91300000000001z" style="fill: rgb(241, 177, 59); fill-opacity: 1;"></path></g><g transform="matrix(0.9292284761884706,0.03787398896938284,-0.03787398896938284,0.9292284761884706,436.677673883716,438.22915623565706)" style="-webkit-user-select: none;"><path d=" M37.877,51.304 C37.877,51.304 26.364,56.424 26.364,56.424 C26.364,56.424 6.058999999999999,12.015 6.058999999999999,12.015 C6.058999999999999,12.015 17.575,6.890000000000001 17.575,6.890000000000001 C17.575,6.890000000000001 37.877,51.304 37.877,51.304z" style="fill: rgb(68, 69, 69); fill-opacity: 1;"></path><path d=" M-7547,-7086 C-7547,-7086 6853,-7086 6853,-7086 C6853,-7086 6853,7314 6853,7314 C6853,7314 -7547,7314 -7547,7314 C-7547,7314 -7547,-7086 -7547,-7086z M-7547,7314 C-7547,7314 6853,7314 6853,7314 C6853,7314 6853,-7086 6853,-7086 C6853,-7086 -7547,-7086 -7547,-7086 C-7547,-7086 -7547,7314 -7547,7314z M26.366,61.543000000000006 C24.424,61.543000000000006 22.567,60.433 21.708,58.553 C21.708,58.553 1.404,14.144000000000002 1.404,14.144000000000002 C0.838000000000001,12.902000000000001 0.7880000000000003,11.482 1.2710000000000008,10.204 C1.7540000000000013,8.926000000000002 2.7310000000000016,7.895000000000003 3.9770000000000003,7.339000000000002 C3.9770000000000003,7.339000000000002 15.493,2.214000000000002 15.493,2.214000000000002 C18.055,1.0750000000000028 21.065,2.208000000000002 22.231,4.7620000000000005 C22.231,4.7620000000000005 42.531,49.176 42.531,49.176 C43.096999999999994,50.42 43.147999999999996,51.839 42.664,53.115 C42.178,54.395 41.205,55.42400000000001 39.955,55.981 C39.955,55.981 28.442,61.101 28.442,61.101 C27.766,61.402 27.058999999999997,61.543000000000006 26.366,61.543000000000006z M12.864,14.589000000000002 C12.864,14.589000000000002 28.912,49.69 28.912,49.69 C28.912,49.69 31.072,48.728 31.072,48.728 C31.072,48.728 15.027000000000001,13.626000000000001 15.027000000000001,13.626000000000001 C15.027000000000001,13.626000000000001 12.864,14.589000000000002 12.864,14.589000000000002z" style="fill: rgb(68, 69, 69); fill-opacity: 1;"></path></g><g transform="matrix(0.8152080789992053,-0.07221044200408638,0.07221044200408638,0.8152080789992053,434.17977225956645,458.84659245672145)" style="-webkit-user-select: none;"><path d=" M3.221000000000002,43.195 C3.221000000000002,43.195 0.25,28.25 0.25,24.583 C0.25,20.915999999999997 5.916,5.25 5.916,5.25 C5.916,5.25 7.083000000000002,0.24999999999999645 9.583000000000002,1.4159999999999968 C12.906,2.6899999999999977 10.25,8.415999999999997 9.75,9.082999999999998 C9.25,9.75 7.862000000000002,20.682 7.862000000000002,20.682 C7.862000000000002,20.682 13.416,11.75 13.416,11.75 C13.416,11.75 21.25,4.415999999999997 21.25,4.415999999999997 C21.25,4.415999999999997 24.75,2.9160000000000004 24.416,7.75 C24.439,10.582999999999998 18.038,15.593999999999998 18.038,15.593999999999998 C18.038,15.593999999999998 14.8,22.902 14.8,22.902 C14.8,22.902 19.426000000000002,16.333999999999996 19.426000000000002,16.333999999999996 C19.426000000000002,16.333999999999996 26.416,10.75 26.416,10.75 C26.416,10.75 31.583000000000002,9.415999999999997 28.75,15.749999999999998 C28.75,15.749999999999998 22.664,20.775 22.664,20.775 C22.664,20.775 20.813000000000002,26.973 20.813000000000002,26.973 C20.813000000000002,26.973 26.768,21.352999999999998 30.435000000000002,20.775 C30.435000000000002,20.775 33.804,20.677999999999997 31.638,24.845 C30.96,26.147999999999996 29.249000000000002,26.096999999999998 28.4,26.973 C26.533,28.897999999999996 25.532000000000004,30.950999999999997 25.532000000000004,30.950999999999997 C25.532000000000004,30.950999999999997 27.083000000000002,37.583 22.583000000000002,43.25 C22.583000000000002,43.25 25.534,48.95099999999999 18.603,53.506 C13.122000000000002,57.108 6.6850000000000005,53.343999999999994 5.319000000000001,50.542 C3.953000000000001,47.739999999999995 3.221000000000002,43.195 3.221000000000002,43.195z" style="fill: rgb(241, 177, 59); fill-opacity: 1;"></path></g></g></g></svg>